<svg width="32" height="32" viewBox="0 0 32 32" fill="none" xmlns="http://www.w3.org/2000/svg">
<g id="akar-icons:linkedin-fill">
<path id="Vector" fill-rule="evenodd" clip-rule="evenodd" d="M12.572 11.9585H17.524V14.4252C18.2373 13.0065 20.0666 11.7318 22.8146 11.7318C28.0826 11.7318 29.3333 14.5558 29.3333 19.7372V29.3332H24V20.9172C24 17.9665 23.2866 16.3025 21.4706 16.3025C18.952 16.3025 17.9053 18.0958 17.9053 20.9158V29.3332H12.572V11.9585ZM3.42663 29.1065H8.75996V11.7318H3.42663V29.1065ZM9.52396 6.0665C9.52416 6.51354 9.4355 6.95615 9.26314 7.36862C9.09078 7.78109 8.83816 8.15519 8.51996 8.46917C7.87516 9.11 7.00237 9.46871 6.09329 9.4665C5.18581 9.46589 4.31504 9.1081 3.66929 8.4705C3.35224 8.15545 3.10047 7.78094 2.92842 7.36841C2.75636 6.95589 2.6674 6.51347 2.66663 6.0665C2.66663 5.16384 3.02663 4.29984 3.67063 3.6625C4.31581 3.02405 5.18695 2.6661 6.09463 2.6665C7.00396 2.6665 7.87596 3.02517 8.51996 3.6625C9.16263 4.29984 9.52396 5.16384 9.52396 6.0665Z" fill="white"/>
</g>
</svg>
